<svg xmlns="http://www.w3.org/2000/svg" version="1.1" xmlns:xlink="http://www.w3.org/1999/xlink" width="320" height="320"><svg xmlns="http://www.w3.org/2000/svg" version="1.1" xmlns:xlink="http://www.w3.org/1999/xlink" width="320" height="320"><svg width="320" height="320" viewBox="0 0 320 320" fill="none" xmlns="http://www.w3.org/2000/svg">
<path d="M233.307 180.101L221.13 183.363C218.058 184.187 214.987 184.562 211.943 184.632C214.544 172.179 214.364 158.966 210.849 145.847C198.903 101.264 153.084 74.6665 108.711 86.5561C64.3386 98.4457 37.9573 144.389 49.9032 188.972C61.849 233.555 107.668 260.152 152.04 248.263C180.46 240.648 201.486 219.041 209.796 192.787C224.994 188.715 237.862 185.267 241.816 184.207C272.388 176.015 303.996 194.855 312.419 226.293L157.405 267.829C102.178 282.627 45.3641 249.646 30.4995 194.171C15.6316 138.683 48.3437 81.7144 103.57 66.9165C174.423 47.9315 242.117 107.163 233.307 180.101Z" fill="#D6B27E"></path>
<path d="M149.709 242.036C108.923 252.964 66.8316 228.546 55.8651 187.618C44.8986 146.691 69.1418 104.498 109.927 93.5696C150.7 82.6445 192.805 107.06 203.771 147.987C207.087 160.361 207.165 172.844 204.564 184.542C189.891 182.215 177.214 171.522 173.109 156.203C166.695 132.263 142.167 118.04 118.318 124.431C94.4687 130.821 80.3387 155.402 86.7533 179.342C93.361 204.002 119.196 218.321 143.643 210.484L143.776 210.678C149.783 209.069 177.007 201.774 201.347 195.252C192.875 217.478 174.301 235.446 149.709 242.036Z" fill="#B96F08"></path>
<path d="M122.017 140.23C137.027 136.208 152.475 145.156 156.516 160.235C160.556 175.314 151.651 190.787 136.642 194.809C121.619 198.834 106.184 189.883 102.143 174.804C98.0903 159.728 106.995 144.255 122.017 140.23Z" fill="#C89043"></path>
</svg></svg><style>@media (prefers-color-scheme: light) { :root { filter: none; } }
@media (prefers-color-scheme: dark) { :root { filter: none; } }
</style></svg>