<svg width="288" height="224" viewBox="0 0 288 224" fill="none" xmlns="http://www.w3.org/2000/svg">
<path d="M207.394 125.765L195.217 129.028C192.145 129.851 189.074 130.226 186.03 130.297C188.631 117.844 188.451 104.631 184.936 91.5114C172.99 46.9288 127.171 20.331 82.7982 32.2206C38.4256 44.1103 12.0443 90.054 23.9901 134.637C35.936 179.219 81.7548 205.817 126.127 193.927C154.547 186.312 175.573 164.705 183.883 138.452C199.081 134.379 211.949 130.931 215.903 129.872C246.475 121.68 278.083 140.519 286.506 171.957L131.492 213.494C76.265 228.292 19.4511 195.311 4.58652 139.836C-10.2814 84.3479 22.4307 27.3789 77.6573 12.581C148.51 -6.40393 216.204 52.8276 207.394 125.765Z" fill="#D6B27E"/>
<path d="M123.796 187.7C83.0102 198.629 40.9185 174.21 29.9521 133.283C18.9856 92.3554 43.2287 50.1625 84.0143 39.2341C124.787 28.309 166.892 52.7241 177.858 93.6516C181.174 106.026 181.252 118.509 178.651 130.206C163.978 127.879 151.301 117.187 147.196 101.867C140.782 77.9277 116.254 63.7048 92.405 70.0952C68.5557 76.4856 54.4257 101.067 60.8403 125.006C67.448 149.666 93.2835 163.986 117.73 156.148L117.863 156.343C123.87 154.734 151.094 147.439 175.434 140.917C166.962 163.142 148.388 181.111 123.796 187.7Z" fill="#B96F08"/>
<path d="M96.1044 85.8947C111.114 81.8729 126.562 90.8202 130.603 105.899C134.643 120.979 125.738 136.451 110.729 140.473C95.7063 144.498 80.2708 135.548 76.2303 120.468C72.1773 105.393 81.0821 89.92 96.1044 85.8947Z" fill="#C89043"/>
</svg>
