<svg width="359" height="102" viewBox="0 0 359 102" fill="none" xmlns="http://www.w3.org/2000/svg">
<path d="M48.64 60.672C46.9333 67.1573 45.0987 73.6 43.136 80C41.2587 86.4 39.2533 92.8427 37.12 99.328H22.272C20.736 95.744 19.072 91.4773 17.28 86.528C15.488 81.5787 13.6107 76.2027 11.648 70.4C9.77067 64.512 7.808 58.3253 5.76 51.84C3.79733 45.2693 1.87733 38.656 0 32H20.096C20.7787 35.072 21.504 38.4427 22.272 42.112C23.1253 45.696 23.9787 49.408 24.832 53.248C25.7707 57.088 26.7093 60.9707 27.648 64.896C28.672 68.736 29.696 72.448 30.72 76.032C31.8293 72.2773 32.896 68.4373 33.92 64.512C35.0293 60.5867 36.0533 56.7467 36.992 52.992C38.016 49.152 38.9547 45.4827 39.808 41.984C40.7467 38.4 41.5573 35.072 42.24 32H56.064C56.7467 35.072 57.5147 38.4 58.368 41.984C59.2213 45.4827 60.1173 49.152 61.056 52.992C61.9947 56.7467 62.976 60.5867 64 64.512C65.024 68.4373 66.0907 72.2773 67.2 76.032C68.224 72.448 69.248 68.736 70.272 64.896C71.296 60.9707 72.2347 57.088 73.088 53.248C74.0267 49.408 74.88 45.696 75.648 42.112C76.5013 38.4427 77.2693 35.072 77.952 32H97.792C95.9147 38.656 93.952 45.2693 91.904 51.84C89.9413 58.3253 87.9787 64.512 86.016 70.4C84.1387 76.2027 82.2613 81.5787 80.384 86.528C78.592 91.4773 76.928 95.744 75.392 99.328H60.544C58.4107 92.8427 56.32 86.4 54.272 80C52.224 73.6 50.3467 67.1573 48.64 60.672Z" fill="#541E1E"/>
<path d="M103.355 66.176C103.355 60.2027 104.251 54.9973 106.043 50.56C107.92 46.0373 110.352 42.2827 113.339 39.296C116.326 36.3093 119.739 34.048 123.579 32.512C127.504 30.976 131.515 30.208 135.611 30.208C145.168 30.208 152.72 33.152 158.267 39.04C163.814 44.8427 166.587 53.4187 166.587 64.768C166.587 65.8773 166.544 67.1147 166.459 68.48C166.374 69.76 166.288 70.912 166.203 71.936H122.939C123.366 75.8613 125.2 78.976 128.443 81.28C131.686 83.584 136.038 84.736 141.499 84.736C144.998 84.736 148.411 84.4373 151.739 83.84C155.152 83.1573 157.926 82.3467 160.059 81.408L162.619 96.896C161.595 97.408 160.23 97.92 158.523 98.432C156.816 98.944 154.896 99.3707 152.763 99.712C150.715 100.139 148.496 100.48 146.107 100.736C143.718 100.992 141.328 101.12 138.939 101.12C132.88 101.12 127.59 100.224 123.067 98.432C118.63 96.64 114.918 94.208 111.931 91.136C109.03 87.9787 106.854 84.2667 105.403 80C104.038 75.7333 103.355 71.1253 103.355 66.176ZM148.155 58.88C148.07 57.2587 147.771 55.68 147.259 54.144C146.832 52.608 146.107 51.2427 145.083 50.048C144.144 48.8533 142.907 47.872 141.371 47.104C139.92 46.336 138.086 45.952 135.867 45.952C133.734 45.952 131.899 46.336 130.363 47.104C128.827 47.7867 127.547 48.7253 126.523 49.92C125.499 51.1147 124.688 52.5227 124.091 54.144C123.579 55.68 123.195 57.2587 122.939 58.88H148.155Z" fill="#541E1E"/>
<path d="M224.441 65.152C224.441 52.864 219.918 46.72 210.873 46.72C208.91 46.72 206.948 46.976 204.985 47.488C203.108 48 201.572 48.64 200.377 49.408V84.096C201.316 84.2667 202.51 84.4373 203.961 84.608C205.412 84.6933 206.99 84.736 208.697 84.736C213.902 84.736 217.828 82.944 220.473 79.36C223.118 75.776 224.441 71.04 224.441 65.152ZM243.897 65.664C243.897 71.04 243.086 75.904 241.465 80.256C239.929 84.608 237.668 88.32 234.681 91.392C231.694 94.464 228.025 96.8533 223.673 98.56C219.321 100.181 214.372 100.992 208.825 100.992C206.521 100.992 204.089 100.864 201.529 100.608C199.054 100.437 196.58 100.181 194.105 99.84C191.716 99.4987 189.412 99.1147 187.193 98.688C184.974 98.176 183.012 97.664 181.305 97.152V3.072L200.377 0V33.536C202.51 32.5973 204.729 31.872 207.033 31.36C209.337 30.848 211.812 30.592 214.457 30.592C219.236 30.592 223.46 31.4453 227.129 33.152C230.798 34.7733 233.87 37.12 236.345 40.192C238.82 43.264 240.697 46.976 241.977 51.328C243.257 55.5947 243.897 60.3733 243.897 65.664Z" fill="#541E1E"/>
<path d="M277.627 99.328H258.555V32H277.627V99.328ZM279.419 12.544C279.419 16.0427 278.267 18.816 275.963 20.864C273.744 22.8267 271.099 23.808 268.027 23.808C264.955 23.808 262.267 22.8267 259.963 20.864C257.744 18.816 256.635 16.0427 256.635 12.544C256.635 9.04533 257.744 6.31466 259.963 4.352C262.267 2.304 264.955 1.28 268.027 1.28C271.099 1.28 273.744 2.304 275.963 4.352C278.267 6.31466 279.419 9.04533 279.419 12.544Z" fill="#541E1E"/>
<path d="M358.531 65.536C358.531 70.8267 357.763 75.6907 356.227 80.128C354.691 84.48 352.472 88.2347 349.571 91.392C346.67 94.464 343.171 96.8533 339.075 98.56C335.064 100.267 330.542 101.12 325.507 101.12C320.558 101.12 316.035 100.267 311.939 98.56C307.928 96.8533 304.472 94.464 301.571 91.392C298.67 88.2347 296.408 84.48 294.787 80.128C293.166 75.6907 292.355 70.8267 292.355 65.536C292.355 60.2453 293.166 55.424 294.787 51.072C296.494 46.72 298.798 43.008 301.699 39.936C304.686 36.864 308.184 34.4747 312.195 32.768C316.291 31.0613 320.728 30.208 325.507 30.208C330.371 30.208 334.808 31.0613 338.819 32.768C342.915 34.4747 346.414 36.864 349.315 39.936C352.216 43.008 354.478 46.72 356.099 51.072C357.72 55.424 358.531 60.2453 358.531 65.536ZM339.075 65.536C339.075 59.648 337.88 55.04 335.491 51.712C333.187 48.2987 329.859 46.592 325.507 46.592C321.155 46.592 317.784 48.2987 315.395 51.712C313.006 55.04 311.811 59.648 311.811 65.536C311.811 71.424 313.006 76.1173 315.395 79.616C317.784 83.0293 321.155 84.736 325.507 84.736C329.859 84.736 333.187 83.0293 335.491 79.616C337.88 76.1173 339.075 71.424 339.075 65.536Z" fill="#541E1E"/>
</svg>
