<svg width="800" height="320" viewBox="0 0 800 320" fill="none" xmlns="http://www.w3.org/2000/svg">
<path d="M0 30C0 13.4315 13.4315 0 30 0H770C786.569 0 800 13.4315 800 30V290C800 306.569 786.569 320 770 320H30C13.4315 320 0 306.569 0 290V30Z" fill="#541E1E"/>
<path d="M263.307 180.1L251.13 183.362C248.058 184.186 244.987 184.561 241.943 184.631C244.544 172.178 244.364 158.965 240.849 145.846C228.903 101.263 183.084 74.6655 138.711 86.5551C94.3386 98.4447 67.9573 144.389 79.9032 188.971C91.849 233.554 137.668 260.151 182.04 248.262C210.46 240.647 231.486 219.04 239.796 192.786C254.994 188.714 267.862 185.266 271.816 184.206C302.388 176.014 333.996 194.854 342.419 226.292L187.405 267.828C132.178 282.626 75.3641 249.645 60.4995 194.17C45.6316 138.682 78.3437 81.7134 133.57 66.9155C204.423 47.9306 272.117 107.162 263.307 180.1Z" fill="#D6B27E"/>
<path d="M179.709 242.035C138.923 252.963 96.8316 228.545 85.8651 187.617C74.8986 146.69 99.1418 104.497 139.927 93.5686C180.7 82.6435 222.805 107.059 233.771 147.986C237.087 160.36 237.165 172.843 234.564 184.541C219.891 182.214 207.214 171.521 203.109 156.202C196.695 132.262 172.167 118.039 148.318 124.43C124.469 130.82 110.339 155.401 116.753 179.341C123.361 204.001 149.196 218.32 173.643 210.483L173.776 210.678C179.783 209.068 207.007 201.773 231.347 195.251C222.875 217.477 204.301 235.445 179.709 242.035Z" fill="#B96F08"/>
<path d="M152.017 140.229C167.027 136.207 182.475 145.155 186.516 160.234C190.556 175.313 181.651 190.786 166.642 194.808C151.619 198.833 136.184 189.882 132.143 174.803C128.09 159.727 136.995 144.254 152.017 140.229Z" fill="#C89043"/>
<path d="M434.92 186.344C433.213 192.829 431.379 199.272 429.416 205.672C427.539 212.072 425.533 218.515 423.4 225H408.552C407.016 221.416 405.352 217.149 403.56 212.2C401.768 207.251 399.891 201.875 397.928 196.072C396.051 190.184 394.088 183.997 392.04 177.512C390.077 170.941 388.157 164.328 386.28 157.672H406.376C407.059 160.744 407.784 164.115 408.552 167.784C409.405 171.368 410.259 175.08 411.112 178.92C412.051 182.76 412.989 186.643 413.928 190.568C414.952 194.408 415.976 198.12 417 201.704C418.109 197.949 419.176 194.109 420.2 190.184C421.309 186.259 422.333 182.419 423.272 178.664C424.296 174.824 425.235 171.155 426.088 167.656C427.027 164.072 427.837 160.744 428.52 157.672H442.344C443.027 160.744 443.795 164.072 444.648 167.656C445.501 171.155 446.397 174.824 447.336 178.664C448.275 182.419 449.256 186.259 450.28 190.184C451.304 194.109 452.371 197.949 453.48 201.704C454.504 198.12 455.528 194.408 456.552 190.568C457.576 186.643 458.515 182.76 459.368 178.92C460.307 175.08 461.16 171.368 461.928 167.784C462.781 164.115 463.549 160.744 464.232 157.672H484.072C482.195 164.328 480.232 170.941 478.184 177.512C476.221 183.997 474.259 190.184 472.296 196.072C470.419 201.875 468.541 207.251 466.664 212.2C464.872 217.149 463.208 221.416 461.672 225H446.824C444.691 218.515 442.6 212.072 440.552 205.672C438.504 199.272 436.627 192.829 434.92 186.344Z" fill="#FAFAFA"/>
<path d="M489.635 191.848C489.635 185.875 490.531 180.669 492.323 176.232C494.2 171.709 496.632 167.955 499.619 164.968C502.606 161.981 506.019 159.72 509.859 158.184C513.784 156.648 517.795 155.88 521.891 155.88C531.448 155.88 539 158.824 544.547 164.712C550.094 170.515 552.867 179.091 552.867 190.44C552.867 191.549 552.824 192.787 552.739 194.152C552.654 195.432 552.568 196.584 552.483 197.608H509.219C509.646 201.533 511.48 204.648 514.723 206.952C517.966 209.256 522.318 210.408 527.779 210.408C531.278 210.408 534.691 210.109 538.019 209.512C541.432 208.829 544.206 208.019 546.339 207.08L548.899 222.568C547.875 223.08 546.51 223.592 544.803 224.104C543.096 224.616 541.176 225.043 539.043 225.384C536.995 225.811 534.776 226.152 532.387 226.408C529.998 226.664 527.608 226.792 525.219 226.792C519.16 226.792 513.87 225.896 509.347 224.104C504.91 222.312 501.198 219.88 498.211 216.808C495.31 213.651 493.134 209.939 491.683 205.672C490.318 201.405 489.635 196.797 489.635 191.848ZM534.435 184.552C534.35 182.931 534.051 181.352 533.539 179.816C533.112 178.28 532.387 176.915 531.363 175.72C530.424 174.525 529.187 173.544 527.651 172.776C526.2 172.008 524.366 171.624 522.147 171.624C520.014 171.624 518.179 172.008 516.643 172.776C515.107 173.459 513.827 174.397 512.803 175.592C511.779 176.787 510.968 178.195 510.371 179.816C509.859 181.352 509.475 182.931 509.219 184.552H534.435Z" fill="#FAFAFA"/>
<path d="M610.721 190.824C610.721 178.536 606.198 172.392 597.153 172.392C595.19 172.392 593.228 172.648 591.265 173.16C589.388 173.672 587.852 174.312 586.657 175.08V209.768C587.596 209.939 588.79 210.109 590.241 210.28C591.692 210.365 593.27 210.408 594.977 210.408C600.182 210.408 604.108 208.616 606.753 205.032C609.398 201.448 610.721 196.712 610.721 190.824ZM630.177 191.336C630.177 196.712 629.366 201.576 627.745 205.928C626.209 210.28 623.948 213.992 620.961 217.064C617.974 220.136 614.305 222.525 609.953 224.232C605.601 225.853 600.652 226.664 595.105 226.664C592.801 226.664 590.369 226.536 587.809 226.28C585.334 226.109 582.86 225.853 580.385 225.512C577.996 225.171 575.692 224.787 573.473 224.36C571.254 223.848 569.292 223.336 567.585 222.824V128.744L586.657 125.672V159.208C588.79 158.269 591.009 157.544 593.313 157.032C595.617 156.52 598.092 156.264 600.737 156.264C605.516 156.264 609.74 157.117 613.409 158.824C617.078 160.445 620.15 162.792 622.625 165.864C625.1 168.936 626.977 172.648 628.257 177C629.537 181.267 630.177 186.045 630.177 191.336Z" fill="#FAFAFA"/>
<path d="M663.907 225H644.835V157.672H663.907V225ZM665.699 138.216C665.699 141.715 664.547 144.488 662.243 146.536C660.024 148.499 657.379 149.48 654.307 149.48C651.235 149.48 648.547 148.499 646.243 146.536C644.024 144.488 642.915 141.715 642.915 138.216C642.915 134.717 644.024 131.987 646.243 130.024C648.547 127.976 651.235 126.952 654.307 126.952C657.379 126.952 660.024 127.976 662.243 130.024C664.547 131.987 665.699 134.717 665.699 138.216Z" fill="#FAFAFA"/>
<path d="M744.811 191.208C744.811 196.499 744.043 201.363 742.507 205.8C740.971 210.152 738.752 213.907 735.851 217.064C732.95 220.136 729.451 222.525 725.355 224.232C721.344 225.939 716.822 226.792 711.787 226.792C706.838 226.792 702.315 225.939 698.219 224.232C694.208 222.525 690.752 220.136 687.851 217.064C684.95 213.907 682.688 210.152 681.067 205.8C679.446 201.363 678.635 196.499 678.635 191.208C678.635 185.917 679.446 181.096 681.067 176.744C682.774 172.392 685.078 168.68 687.979 165.608C690.966 162.536 694.464 160.147 698.475 158.44C702.571 156.733 707.008 155.88 711.787 155.88C716.651 155.88 721.088 156.733 725.099 158.44C729.195 160.147 732.694 162.536 735.595 165.608C738.496 168.68 740.758 172.392 742.379 176.744C744 181.096 744.811 185.917 744.811 191.208ZM725.355 191.208C725.355 185.32 724.16 180.712 721.771 177.384C719.467 173.971 716.139 172.264 711.787 172.264C707.435 172.264 704.064 173.971 701.675 177.384C699.286 180.712 698.091 185.32 698.091 191.208C698.091 197.096 699.286 201.789 701.675 205.288C704.064 208.701 707.435 210.408 711.787 210.408C716.139 210.408 719.467 208.701 721.771 205.288C724.16 201.789 725.355 197.096 725.355 191.208Z" fill="#FAFAFA"/>
</svg>
